<?xml version="1.0" standalone="no"?>
<!DOCTYPE svg PUBLIC "-//W3C//DTD SVG 20010904//EN"
 "http://www.w3.org/TR/2001/REC-SVG-20010904/DTD/svg10.dtd">
<svg version="1.0" xmlns="http://www.w3.org/2000/svg"
 width="1160.000000pt" height="1160.000000pt" viewBox="0 0 1160.000000 1160.000000"
 preserveAspectRatio="xMidYMid meet">
<metadata>
Created by potrace 1.11, written by Peter Selinger 2001-2013
</metadata>
<g transform="translate(0.000000,1160.000000) scale(0.100000,-0.100000)"
fill="#000000" stroke="none">
<path d="M7944 8231 l1 -609 25 -20 c14 -11 35 -28 47 -38 11 -11 41 -35 64
-54 24 -19 79 -66 124 -104 44 -37 91 -78 105 -90 14 -11 50 -41 80 -66 50
-41 66 -55 110 -94 8 -8 47 -39 85 -71 39 -31 72 -61 73 -66 2 -5 8 -9 12 -9
5 0 20 -10 32 -22 32 -31 136 -120 162 -138 12 -8 35 -28 51 -44 17 -15 46
-40 65 -55 19 -14 37 -28 40 -31 3 -3 32 -28 65 -55 33 -27 72 -62 88 -77 15
-15 27 -24 27 -20 0 4 5 -1 11 -10 5 -10 14 -18 19 -18 5 0 24 -15 42 -33 18
-18 42 -40 54 -48 12 -8 42 -32 67 -54 24 -22 53 -47 64 -55 47 -38 128 -105
133 -110 6 -6 128 -110 147 -125 7 -5 26 -22 43 -37 16 -16 35 -28 40 -28 6 0
8 -4 5 -10 -3 -5 -1 -10 5 -10 6 0 21 -9 33 -21 12 -11 50 -44 85 -72 34 -28
62 -54 62 -59 0 -4 6 -8 13 -8 7 0 28 -15 45 -33 l32 -33 -27 -25 c-16 -13
-55 -46 -88 -74 -57 -48 -178 -150 -237 -201 -15 -13 -33 -24 -40 -24 -6 0 -8
-3 -5 -7 4 -3 -12 -20 -36 -37 -23 -17 -46 -36 -52 -42 -5 -7 -39 -36 -75 -65
-36 -29 -67 -55 -70 -59 -3 -3 -45 -39 -95 -80 -49 -41 -98 -83 -107 -92 -10
-10 -18 -15 -18 -11 0 4 -6 0 -12 -8 -7 -8 -42 -40 -78 -70 -36 -30 -70 -58
-76 -64 -6 -5 -33 -28 -60 -50 -26 -22 -66 -56 -89 -75 -23 -19 -60 -51 -84
-70 -23 -19 -52 -44 -65 -55 -12 -11 -44 -38 -70 -60 -50 -41 -72 -60 -116
-98 -14 -12 -50 -42 -80 -67 -30 -25 -60 -49 -66 -55 -6 -5 -32 -28 -58 -50
-27 -22 -57 -47 -67 -57 -11 -9 -38 -31 -59 -48 -22 -18 -50 -42 -63 -53 -12
-12 -40 -35 -61 -52 -21 -16 -48 -39 -60 -50 -30 -26 -74 -64 -112 -95 l-30
-25 0 -603 c0 -331 2 -602 5 -602 5 0 214 173 359 298 29 25 65 54 80 66 15
12 34 28 43 36 35 32 76 67 129 110 30 24 60 48 65 54 6 6 66 58 135 115 69
57 127 108 128 113 2 4 8 8 13 8 5 0 17 8 27 18 47 44 102 92 102 88 0 -2 14
9 31 24 16 16 48 44 71 62 22 18 51 42 63 53 67 59 130 111 144 119 9 5 23 17
31 26 8 10 55 51 105 91 87 71 144 120 171 147 7 6 15 12 18 12 3 0 21 15 41
33 19 17 40 37 47 42 7 6 40 33 73 60 32 28 68 57 78 65 10 8 29 24 41 35 12
11 44 38 71 60 27 22 59 50 72 62 12 12 39 34 60 50 20 15 49 39 63 53 15 14
55 48 88 75 34 28 62 53 62 58 0 4 7 7 15 7 8 0 15 3 15 8 0 4 26 28 58 54 54
43 67 54 124 103 35 30 91 77 132 110 20 17 54 46 75 65 21 19 55 49 76 65 20
17 45 37 55 45 10 8 39 33 66 55 26 22 82 69 124 105 42 36 98 83 124 105 67
55 126 107 148 128 10 9 18 15 18 12 0 -3 10 4 23 15 58 55 112 100 119 100 4
0 8 4 8 9 0 9 -37 42 -246 218 -27 23 -59 50 -71 60 -12 10 -32 27 -45 38 -12
11 -50 42 -83 70 -33 27 -69 57 -80 67 -55 47 -102 87 -196 165 -68 57 -141
119 -165 140 -12 10 -41 34 -64 53 -45 37 -51 42 -126 107 -27 22 -112 94
-189 158 -77 65 -141 121 -143 126 -2 5 -8 9 -13 9 -5 0 -22 12 -37 28 -15 15
-36 34 -48 42 -18 13 -104 84 -138 115 -6 6 -36 30 -66 55 -30 25 -60 49 -66
55 -6 5 -35 30 -64 55 -29 25 -88 74 -130 110 -42 36 -96 81 -120 100 -24 19
-53 45 -66 58 -13 12 -25 22 -28 22 -3 0 -16 10 -29 23 -13 12 -34 31 -48 42
-65 53 -215 179 -219 184 -3 4 -30 26 -60 51 -30 25 -60 49 -66 55 -6 5 -35
30 -64 55 -212 178 -242 204 -256 217 -7 7 -17 13 -23 13 -6 0 -11 4 -11 8 0
7 -71 69 -168 147 -14 11 -35 30 -48 43 -13 12 -27 22 -33 22 -5 0 -11 4 -13
9 -1 4 -34 35 -73 67 -38 32 -72 61 -75 64 -3 3 -25 21 -50 41 -25 20 -56 47
-70 58 -14 12 -36 32 -50 43 -14 11 -32 27 -41 34 -14 12 -15 -44 -15 -595z"/>
<path d="M3577 8804 c-15 -14 -56 -49 -90 -77 -34 -28 -67 -56 -73 -62 -29
-26 -64 -54 -64 -51 0 2 -15 -10 -32 -28 -18 -17 -55 -49 -82 -71 -27 -22 -54
-44 -60 -50 -6 -5 -38 -32 -71 -59 -33 -27 -69 -58 -80 -68 -11 -10 -31 -28
-45 -39 -27 -22 -71 -58 -196 -165 -44 -38 -101 -85 -125 -106 -24 -20 -55
-46 -69 -57 -14 -12 -43 -37 -65 -55 -234 -197 -312 -262 -323 -271 -7 -5 -25
-21 -40 -35 -15 -14 -49 -43 -77 -65 -27 -21 -60 -49 -72 -62 -12 -13 -24 -23
-27 -23 -4 0 -64 -50 -98 -82 -10 -10 -20 -18 -23 -18 -3 0 -17 -10 -30 -22
-44 -43 -85 -78 -90 -78 -2 0 -18 -12 -34 -27 -83 -77 -101 -92 -101 -87 0 2
-14 -9 -30 -26 -17 -17 -30 -28 -30 -26 0 3 -10 -5 -23 -17 -12 -12 -42 -38
-65 -57 -24 -19 -54 -44 -66 -55 -13 -11 -44 -38 -71 -60 -62 -51 -200 -168
-243 -206 -18 -16 -35 -29 -37 -29 -3 0 -13 -8 -23 -17 -10 -10 -39 -36 -65
-58 -26 -22 -64 -55 -85 -73 -20 -18 -58 -49 -85 -69 -26 -21 -47 -41 -47 -45
0 -4 -4 -8 -9 -8 -8 0 -64 -46 -113 -92 -10 -10 -18 -16 -18 -13 0 2 -13 -8
-29 -23 -25 -24 -87 -77 -145 -124 -11 -10 -39 -33 -61 -52 -22 -19 -76 -65
-120 -101 -44 -37 -104 -88 -134 -114 -29 -25 -62 -51 -72 -56 -26 -14 -22
-19 136 -150 72 -60 132 -113 133 -117 2 -5 8 -6 13 -2 5 3 9 -1 9 -8 0 -8 12
-21 28 -30 15 -10 46 -34 69 -55 23 -21 51 -45 61 -53 28 -22 110 -91 139
-117 13 -11 41 -35 63 -53 21 -17 48 -39 58 -48 11 -10 41 -35 68 -57 44 -37
76 -64 114 -98 8 -7 42 -35 75 -63 33 -27 62 -51 65 -54 3 -3 57 -49 120 -102
63 -52 125 -104 137 -114 11 -11 40 -35 63 -53 24 -19 48 -40 54 -46 6 -5 36
-30 66 -55 30 -25 62 -52 71 -60 17 -16 26 -24 129 -109 36 -30 67 -57 70 -60
3 -3 26 -23 52 -44 26 -21 53 -43 60 -50 7 -7 35 -30 63 -52 27 -22 63 -52 80
-67 96 -84 256 -218 259 -218 3 0 16 -10 29 -22 35 -35 83 -76 177 -152 47
-39 87 -72 90 -75 4 -5 143 -123 219 -186 13 -11 34 -30 47 -42 13 -13 28 -23
34 -23 5 0 10 -5 10 -10 0 -6 11 -15 25 -22 13 -6 22 -15 19 -19 -3 -5 0 -9 5
-9 6 0 20 -9 31 -20 11 -11 20 -18 20 -15 0 3 18 -12 41 -35 22 -22 45 -40 50
-40 5 0 12 -7 15 -15 4 -8 10 -15 15 -15 4 0 21 -12 37 -27 16 -16 50 -46 77
-68 27 -22 54 -46 61 -53 7 -6 15 -12 17 -12 3 0 29 -22 58 -50 30 -27 60 -50
67 -50 6 0 12 -4 12 -8 0 -4 35 -37 78 -72 42 -36 80 -69 84 -75 9 -12 9 -34
9 649 l-1 559 -36 34 c-20 18 -38 33 -41 33 -2 0 -15 10 -28 23 -25 23 -46 41
-114 97 -23 19 -54 45 -67 58 -14 12 -30 22 -35 22 -6 0 -7 4 -4 10 3 6 1 10
-5 10 -6 0 -17 6 -24 13 -12 10 -45 39 -133 113 -12 11 -41 35 -64 54 -66 54
-99 83 -117 103 -9 9 -22 17 -29 17 -7 0 -13 4 -13 8 0 5 -28 31 -62 59 -35
28 -73 61 -85 72 -12 12 -27 21 -33 21 -5 0 -10 4 -10 8 0 5 -28 31 -62 59
-35 28 -73 59 -84 70 -12 10 -43 36 -69 58 -27 22 -62 52 -79 67 -17 14 -53
45 -81 68 -27 23 -61 52 -75 64 -14 11 -50 41 -80 66 -30 25 -65 54 -76 65
-12 11 -30 27 -41 35 -21 17 -202 169 -219 185 -6 5 -28 24 -48 40 -21 17 -45
37 -55 45 -83 70 -128 108 -148 128 -13 12 -26 22 -29 22 -3 0 -18 12 -34 28
-15 15 -37 34 -49 42 -27 19 -27 31 4 54 14 11 36 29 49 40 24 22 36 32 131
111 60 51 108 91 129 110 6 6 54 46 106 89 52 43 111 93 131 110 20 17 58 49
84 71 27 22 53 45 59 50 6 6 49 42 96 80 47 38 87 72 90 76 3 3 34 30 70 60
72 59 107 89 124 104 6 6 36 30 66 55 65 53 107 89 130 110 9 8 36 31 60 51
25 20 56 47 70 59 14 12 53 45 88 73 34 28 62 54 62 59 0 4 6 8 13 8 6 0 36
23 65 50 28 27 52 47 52 43 0 -4 6 0 13 9 11 14 50 47 207 178 29 25 64 54 76
65 12 12 36 31 52 44 17 12 47 37 67 55 l36 33 0 599 c0 329 -3 600 -8 601 -4
2 -21 -9 -36 -23z"/>
<path d="M6449 6973 c-30 -25 -65 -55 -79 -67 -14 -11 -50 -41 -80 -66 -30
-25 -62 -52 -71 -60 -9 -8 -36 -31 -59 -50 -24 -19 -53 -44 -66 -55 -12 -11
-41 -36 -64 -55 -24 -19 -48 -40 -54 -46 -6 -6 -32 -26 -58 -46 -26 -20 -44
-39 -41 -42 4 -3 1 -6 -5 -6 -11 0 -154 -118 -160 -132 -2 -5 -8 -8 -13 -8 -5
0 -24 -15 -43 -32 -19 -18 -47 -43 -63 -55 -15 -13 -42 -35 -59 -50 -17 -16
-51 -44 -75 -63 -24 -19 -53 -44 -64 -55 -12 -11 -55 -47 -96 -80 -41 -33 -78
-65 -84 -71 -5 -6 -66 -57 -135 -115 -69 -57 -127 -106 -130 -109 -3 -3 -30
-25 -60 -50 -30 -25 -60 -49 -66 -55 -6 -5 -33 -28 -59 -50 -26 -22 -55 -47
-65 -55 -10 -8 -39 -33 -66 -55 -26 -22 -58 -50 -71 -62 -13 -13 -26 -23 -28
-23 -3 0 -13 -8 -23 -17 -10 -10 -39 -36 -66 -58 -27 -22 -58 -48 -70 -58 -11
-11 -41 -35 -65 -55 -25 -21 -53 -45 -63 -54 -10 -10 -21 -18 -24 -18 -4 0
-14 -8 -23 -18 -9 -9 -56 -51 -106 -92 -49 -41 -98 -83 -107 -92 -10 -10 -20
-18 -23 -18 -2 0 -18 -12 -34 -27 -16 -16 -36 -32 -43 -38 -7 -5 -29 -23 -49
-40 -19 -16 -60 -50 -89 -75 -30 -25 -62 -53 -72 -62 -10 -10 -22 -18 -27 -18
-5 0 -11 -7 -15 -15 -5 -13 78 -15 711 -15 l716 0 61 52 c34 29 70 60 81 70
21 18 76 63 165 138 30 25 65 55 77 67 13 12 29 26 36 30 17 10 110 88 149
125 16 16 31 28 34 28 3 0 11 6 18 13 7 6 35 31 62 54 27 23 59 50 70 60 12
10 43 36 70 58 27 22 56 47 64 56 9 8 25 22 37 30 11 8 41 32 66 54 25 22 61
52 79 67 18 15 47 39 63 53 17 15 50 43 75 63 25 20 52 43 61 52 9 8 27 24 40
35 14 11 65 54 114 96 50 41 137 115 195 163 58 48 116 97 130 109 14 12 54
46 90 76 36 29 74 62 85 72 22 20 87 74 160 134 26 22 60 50 74 63 13 13 40
35 59 50 19 15 44 36 56 47 13 11 39 35 59 53 21 18 37 31 37 28 0 -2 17 12
38 31 20 19 53 47 72 61 19 15 47 40 62 55 16 15 28 24 28 20 0 -4 6 0 13 8 6
9 71 65 142 124 72 60 137 114 145 122 12 11 -107 13 -707 12 l-720 0 -54 -46z"/>
</g>
</svg>
